<svg id="evHrhaiqcF31" xmlns="http://www.w3.org/2000/svg" xmlns:xlink="http://www.w3.org/1999/xlink" viewBox="0 0 716 148" shape-rendering="geometricPrecision" text-rendering="geometricPrecision" project-id="b9e8714cf7794559ab2a9635537d1637" export-id="7b7144ae34f34d6e8a5427e6dd496f3f" cached="false">
<style><![CDATA[
#evHrhaiqcF32_to {animation: evHrhaiqcF32_to__to 10000ms linear infinite normal forwards}@keyframes evHrhaiqcF32_to__to { 0% {transform: translate(355.508406px,73.997421px)} 46% {transform: translate(355.508406px,73.997421px)} 50% {transform: translate(1069.032163px,73.997421px)} 95% {transform: translate(1069.032163px,73.997421px)} 99% {transform: translate(355.508406px,73.997421px)} 100% {transform: translate(355.508406px,73.997421px)}} #evHrhaiqcF32 {animation: evHrhaiqcF32_c_o 10000ms linear infinite normal forwards}@keyframes evHrhaiqcF32_c_o { 0% {opacity: 1} 45% {opacity: 1} 49% {opacity: 0} 94% {opacity: 0} 98% {opacity: 1} 100% {opacity: 1}} #evHrhaiqcF322_to {animation: evHrhaiqcF322_to__to 10000ms linear infinite normal forwards}@keyframes evHrhaiqcF322_to__to { 0% {transform: translate(-347.507202px,40px)} 46% {transform: translate(-347.507202px,40px)} 50% {transform: translate(411px,40px)} 90% {transform: translate(411px,40px)} 94% {transform: translate(1068.571624px,40px)} 100% {transform: translate(1068.571624px,40px)}} #evHrhaiqcF322 {animation: evHrhaiqcF322_c_o 10000ms linear infinite normal forwards}@keyframes evHrhaiqcF322_c_o { 0% {opacity: 0} 45% {opacity: 0} 49% {opacity: 1} 89% {opacity: 1} 93% {opacity: 0} 100% {opacity: 0}}
]]></style>
<g id="evHrhaiqcF32_to" transform="translate(355.508406,73.997421)"><g id="evHrhaiqcF32" transform="scale(3.352666,3.371227) translate(-112.500003,-25.000001)"><g><g><path d="M12.2,34.7h-6v-29.6h6.1v12.5h11.2v-12.5h6.1v29.7h-6.1v-12.2h-11.3v12.1Z" fill="#046db1"/><path d="M37.2,25.8c.5,2.9,2.6,4.6,5.4,4.6c2.1,0,3.9-1,4.8-2.7l5.2,1.4c-2,4-5.7,6.3-10,6.3-6.5,0-11.2-4.6-11.2-11s4.5-11,10.8-11s11.2,4.6,11.2,11.3v1.1h-16.2v0Zm10.4-3.3c-.5-2.7-2.5-4.4-5.2-4.4s-4.5,1.6-5.1,4.4h10.3Z" fill="#046db1"/><path d="M71.3,14.1h5.7v20.6h-5.7v-2.9c-1.9,2.4-4.1,3.6-7.2,3.6-5.8,0-9.9-4.5-9.9-10.8s4.4-11.2,10.4-11.2c2.8,0,4.7,1,6.7,3.3v-2.6v0Zm-11,10.5c0,3.6,2.4,6.3,5.4,6.3s5.7-2.9,5.7-6.5-2.3-6.2-5.7-6.2-5.4,2.6-5.4,6.4v0Z" fill="#046db1"/><path d="M79.7,34.7v-29.6h5.7v29.7l-5.7-.1v0Z" fill="#046db1"/><path d="M95.2,28.7c0,1,.4,1.2,1.6,1.3h1v4.7h-4.5c-2.8-.1-3.8-1.2-3.7-3.9v-12h-2.4v-4.8h2.4v-5.5h5.7v5.5h2.6v4.8h-2.6l-.1,9.9v0Z" fill="#046db1"/><path d="M105.6,16.4c1.7-2.1,3.4-2.9,5.7-2.9c1.8,0,3.7.8,4.9,1.9c1.3,1.2,1.8,2.9,1.8,5.8v13.6h-5.7v-12.8c0-2.3-1.2-3.8-3.1-3.8-1,0-1.9.4-2.5,1-.9.9-1.2,1.6-1.2,3.2v12.3h-5.7v-29.6h5.7l.1,11.3v0v0Z" fill="#046db1"/><path d="M127.1,34.7h-6.1v-29.6h6.1v29.6Z" fill="#046db1"/><path d="M142.4,34.7h-6.1v-24.6h-7.1v-5h20.2v5h-7v24.6v0Z" fill="#046db1"/><path d="M151.5,32.1c0,1.8-1.4,3.2-3.3,3.2s-3.3-1.4-3.3-3.3s1.4-3.2,3.3-3.2s3.3,1.4,3.3,3.3v0v0Z" fill="#046db1"/><path d="M170.8,14.1h5.6v19.1c0,4.2-.8,6.7-2.8,8.6-2,2-5,3.1-8.5,3.1-4,0-7.3-1.3-10.1-4.1l3.5-3.6c1.8,2,3.8,2.8,6.4,2.8c3.8,0,6-2.2,6-6.1v-2.1c-1.9,2.4-4.3,3.5-7.2,3.5-5.6,0-9.7-4.6-9.7-10.9c0-6.7,4.1-11.2,10.3-11.2c2.9,0,4.9,1,6.7,3.2v-2.3h-.2v0Zm-11,10.2c0,3.6,2.3,6.1,5.6,6.1c1.6,0,3.2-.7,4.3-1.9.7-.8,1.1-2.1,1.1-3.6c0-2.2-.5-3.7-1.5-4.8-1-1-2.4-1.6-3.9-1.6-3.3,0-5.6,2.4-5.6,5.8v0v0Z" fill="#046db1"/><path d="M218.8,14.1l-7.5,20.6h-5.8l-7.4-20.6h5.9l4.5,12.3l4.6-12.3h5.7v0Z" fill="#046db1"/></g><g><circle r="10.3" transform="translate(188.6 24.5)" fill="#046db1"/><g><path d="M194.8,32.5c-2.5-3.9-6.1-7-10.2-9.1-1.8-.9-3.8-1.6-5.8-2.1-.2.5-.3,1-.4,1.5c5.8,1.6,11.1,4.8,15.2,9c.3.3.5.6.8.9.1.1.1.2.2.2.1-.1.2-.2.3-.2c0-.1-.1-.2-.1-.2v0Z" fill="#eb8b84"/><path d="M194.1,33.2c-3.4-3.9-9.7-7.7-15.8-9.4c0,.2,0,.4,0,.7c0,.2,0,.4,0,.6c5.8,1.6,11.1,4.5,15.5,8.4c0-.2.1-.2.3-.3v0Z" fill="#8ca7d7"/><path d="M198.6,22.1l-6.5-.1-1.9-6.3L188,22h-3.5c0,0,3.5,1.9,6,4.2c2.8,2.6,4.6,5.8,4.6,5.9l-1.9-6.2l5.4-3.8v0Z" fill="#ffc72c"/></g></g></g></g></g><g id="evHrhaiqcF322_to" transform="translate(-347.507202,40)"><g id="evHrhaiqcF322" transform="scale(0.14108,0.14108) translate(-2540.638599,-548.75592)" opacity="0"><g transform="translate(-39.966283-11.464754)"><g transform="translate(-373.780985 149.30806)"><g><g><g><path d="M3842.2,380.8c-114.7,0-212,74.3-246.5,177.4c0,0,0,0,0,0s0,0,0,0c.1,0,.2,0,.3.1c51,12.7,100,30.4,146,53.9c103.9,52.9,193.2,132.4,256.9,229.5c1,1,2,2.9,3.9,2.9-2.9,2-4.9,3.9-7.8,5.9-2-2-2.9-3.9-4.9-5.9-6.9-6.9-13.7-14.7-20.6-21.6-103.9-105.9-235.4-186.3-382.4-227.5c0,0,0,0,0,0-.3,0-.6-.2-.9-.2-1.6,9.4-2.8,18.9-3.4,28.6.1,0,.3,0,.4.1c0,0,0,0,0,0c152.9,42.1,311.7,138.2,398,236.2c72.6-46.1,120.7-127.2,120.7-219.5c0-143.5-116.3-259.9-259.9-259.9h.2Zm165.7,452.9c-1.7-4.1-47.6-82.8-116.7-148-63.7-59.8-152-106.9-152-106.9l89.2-1l52.9-155.9l49,157.9l164.7,2-135.3,97.1l48,154.9.2-.1Z" fill="#0030cc"/><path d="M3583,655.5c0,0-.1,0-.2,0c7.7,136.6,120.9,245,259.4,245s91.2-12.5,129.3-34.4c-109.7-97.9-241.8-171.3-388.6-210.6h.1Z" fill="#0030cc"/><path d="M3979.3,861.4c-2,1.1-3.8,2.2-5.5,3.3c1.8-1.1,3.7-2.2,5.5-3.3Z" fill="#0030cc"/><g><path d="M3971.5,866.1c.7-.4,1.5-.9,2.2-1.3-.7.4-1.4.9-2.1,1.4c0,0,0,0-.1-.1Z" fill="#0030cc"/><path d="M3981.4,860.3c-.7.4-1.4.7-2.1,1.1.7-.4,1.3-.8,2-1.2c0,0,0,0,.1.1Z" fill="#0030cc"/></g></g><path d="M5047.4,825c-61.8,51-116.7,70.6-193.2,70.6s-141.2-24.5-188.3-75.5c-44.1-47.1-69.6-112.8-69.6-181.4s34.3-155.9,91.2-203c45.1-37.3,101-55.9,170.6-55.9s85.3,8.8,121.6,24.5c26.5,11.8,42.2,22.6,73.5,50l-80.4,81.4c-36.3-30.4-71.6-45.1-110.8-45.1-82.4,0-140.2,58.8-140.2,143.2s60.8,149.1,147.1,149.1s75.5-13.7,103-42.2l75.5,84.3v0Z" fill="#0030cc"/><path d="M4255,886.8h-124.5v-495.2h124.5l187.3,278.5v-278.5h124.5v494.2h-124.5L4255,604.4v282.4Z" fill="#0030cc"/></g></g><rect width="7.4" height="681" rx="0" ry="0" transform="translate(3323.5 268)" fill="#b2b2b2"/><g><g><path d="M1162.7,412.9h166.5l223.5,408.4h-135.9l-40.4-72.9h-263.3l-39.2,72.9h-140.8l229.6-408.4Zm170.2,250.4l-88.2-162.9-86.9,162.9h175.1Z" fill="#0030cc"/><path d="M1668.7,690.9c1.2,28.2,4.3,34.9,19,40.4c9.2,3.7,44.1,6.1,83.3,6.1c143.9,0,161-4.3,161-38s-8-28.8-20.8-33.1q-13.5-4.3-77.8-4.9h-112.6c-75.3,0-106.5-4.3-132.9-17.8-29.4-15.3-42.9-47.8-42.9-103.5s20.8-104.7,79.6-118.8c33.1-8.6,80.8-11.6,170.2-11.6c143.3,0,176.3,3.7,205.7,22.7c28.2,19,37.3,44.1,37.3,105.3h-121.2c0-35.5-12.2-40.4-92.4-40.4s-93.1,1.2-112.6,2.4c-33.1,2.4-44.1,11-44.1,34.3s8.6,28.2,26.3,32.4c7.3,1.8,9.8,2.4,50.2,3.1h115.7c11,0,66.1,1.8,86.9,3.1c77.8,3.7,108.4,38,108.4,120s-22,108.4-82,121.2c-30.6,6.7-91.2,10.4-180,10.4-141.4,0-172.6-3.1-208.8-21.4-25.1-12.2-38-43.5-38-91.8s0-11.6.6-20.2h121.8l.1.1Z" fill="#0030cc"/><path d="M2241.5,513.9h-181.8v-101h487.9v101h-181.8v307.3h-124.3v-307.3Z" fill="#0030cc"/><path d="M2578.2,412.9h312.2c79,0,99.2,2.4,124.9,15.3c41,20.2,56.3,57.5,56.3,134.7s-14.1,118.2-47.8,139c-23.9,14.7-51.4,19-122.4,19h-199.6v100.4h-123.7v-408.4h.1Zm304.3,208.8c50.8,0,65.5-11,65.5-49.6s-12.2-60-65.5-60h-180.6v109.6h180.6Z" fill="#0030cc"/></g><g><path d="M659.1,169.2c-8.1,18.5-23.6,33-42.8,39.6-8.1-2.9-16-5.2-23.6-7.2-29.2-7.5-53.1-8.6-64.9-8.6s-3.9,0-5.2,0c-47.9,0-194.9,10.5-313.9,129.1-.1.1-.3.3-.4.4-1,1-2,2-3.1,3.1v0c-5.9,6-13.5,14.4-22.2,24.9c16.6,5.5,33.7,10.7,51.3,15.4c16.1,4.3,33.1,8.4,51.2,12.2L152.3,392.5l-65.6,7.1c14.8-27.2,30.3-50.1,44.1-68.2c18.3-24,33.6-39.7,40.2-46.3c144.3-144.3,323.9-145.3,355.8-145c8.7,0,33.4.2,65.9,7.2c19.9,4.3,42.7,11,66.4,21.8v.1Z" fill="#0030cc"/><path d="M698.1,812.4c-144.3,144.4-323.9,145.4-355.8,145v0c-.8,0-1.8,0-3,0-.3,0-.6,0-1,0h-.4c-.2,0-.5,0-.7,0s-.5,0-.7,0-.3,0-.5,0c-.4,0-.8,0-1.3,0-.3,0-.5,0-.8,0-.2,0-.5,0-.7,0-.1,0-.3,0-.4,0c0,0-.2,0-.3,0-.4,0-.8,0-1.2,0v0c-.8,0-1.6,0-2.4-.1-.1,0-.3,0-.4,0-.3,0-.6,0-.9,0c0,0,0,0-.1,0-.2,0-.5,0-.7,0-.6,0-1.3,0-1.9-.1-.9,0-1.9-.1-2.9-.2-.4,0-.8,0-1.2,0s-.8,0-1.2,0c-.2,0-.5,0-.7,0s-.3,0-.5,0c-.5,0-.9,0-1.4-.1-.4,0-.8,0-1.1-.1-.4,0-.9,0-1.3-.1-.4,0-.9,0-1.3-.1-.3,0-.6,0-1,0-.6,0-1.2-.1-1.8-.2-.9,0-1.8-.2-2.7-.3c0,0-.2,0-.3,0-.8-.1-1.7-.2-2.5-.3-.6,0-1.3-.2-1.9-.2s-1.3-.2-1.9-.3c-.7,0-1.3-.2-2-.3-.3,0-.7-.1-1-.1s-.7-.1-1-.1c-.2,0-.3,0-.5,0-.5,0-1-.2-1.5-.2-1.4-.2-2.9-.5-4.3-.7c0,0,0,0,0,0-.2,0-.4,0-.7-.1v0c0,0,0,0,0,0-.1,0-.3,0-.5,0v0c0,0,0,0-.1,0s-.2,0-.3,0-.3,0-.4,0v0c-.4,0-.7-.1-1.1-.2c0,0,0,0,0,0-.3,0-.7-.1-1-.2-.7-.1-1.4-.3-2.1-.4c0,0,0,0-.1,0-.3,0-.6-.1-1-.2-.3,0-.6-.1-.9-.2-.2,0-.3,0-.5,0-.7-.1-1.4-.3-2.1-.4-.3,0-.5-.1-.8-.2-.6-.1-1.2-.3-1.8-.4s-1.3-.3-1.9-.4c-.2,0-.3,0-.5-.1-1.1-.3-2.3-.5-3.4-.8c0,0,0,0,0,0-.5-.1-.9-.2-1.3-.3-.7-.2-1.3-.3-2-.5-.1,0-.3,0-.5-.1-.8-.2-1.6-.4-2.4-.6c0,0-.2,0-.2,0-.8-.2-1.6-.4-2.4-.6s-1.7-.4-2.5-.7c-.6-.2-1.1-.3-1.7-.5-.2,0-.3,0-.5-.1-.4-.1-.8-.2-1.2-.3-.2,0-.4-.1-.6-.2-.4-.1-.8-.2-1.1-.3-.3,0-.5-.2-.8-.2-.4-.1-.9-.3-1.3-.4-.5-.2-1-.3-1.6-.5c0,0-.2,0-.3,0-.8-.2-1.6-.5-2.4-.7c0,0,0,0-.1,0-.5-.2-1-.3-1.5-.5c0,0-.1,0-.1,0-.6-.2-1.2-.4-1.9-.6-.4-.1-.7-.2-1.1-.4-.1,0-.3,0-.4-.1-.8-.3-1.7-.6-2.5-.8-1.5-.5-3-1-4.5-1.5-.9-.3-1.8-.6-2.7-1-.9-.3-1.8-.7-2.8-1-.8-.3-1.6-.6-2.3-.9c0,0-.2,0-.3-.1c0,0,0,0-.1,0s0,0-.1,0c-.5-.2-.9-.3-1.4-.5s-1-.4-1.5-.6c-1.6-.7-3.3-1.3-5-2-.3-.1-.6-.2-.8-.3-.7-.3-1.4-.6-2.2-.9-.5-.2-1-.4-1.5-.6s-1-.4-1.5-.7c-.8-.4-1.6-.7-2.4-1.1-.1,0-.3-.1-.4-.2-.9-.4-1.9-.9-2.8-1.3s-1.9-.9-2.9-1.3c-.8-.4-1.6-.8-2.5-1.2-.1,0-.3-.1-.4-.2-.3-.1-.5-.2-.8-.4s-.7-.3-1.1-.5-.7-.3-1.1-.5c-1-.5-1.9-1-2.9-1.4-.1,0-.2-.1-.4-.2-.7-.4-1.4-.7-2.1-1.1-.1,0-.3-.2-.5-.2-1.2-.6-2.5-1.3-3.7-2-.7-.4-1.4-.8-2.1-1.1-1-.5-1.9-1.1-2.9-1.6s-1.9-1.1-2.9-1.7c-.7-.4-1.4-.8-2.1-1.2-.2,0-.3-.2-.5-.3s-.5-.3-.7-.4c-1.8-1.1-3.6-2.2-5.4-3.3-1.9-1.2-3.9-2.5-5.8-3.7-1-.6-1.9-1.3-2.9-1.9-.2-.2-.5-.3-.7-.5s-.5-.3-.7-.5c-.5-.3-1-.7-1.5-1-.1,0-.3-.2-.4-.3-.8-.6-1.6-1.1-2.5-1.7-1-.7-1.9-1.4-2.9-2.1s-1.9-1.4-2.9-2.1c-.6-.5-1.3-.9-1.9-1.4-.3-.2-.5-.4-.7-.6-.1,0-.2-.2-.3-.2-.3-.2-.6-.4-.9-.7-.7-.5-1.3-1-2-1.5c0,0,0,0,0,0-.9-.7-1.9-1.5-2.8-2.2s-1.8-1.4-2.6-2.1c0,0-.2-.1-.2-.2-.5-.4-.9-.8-1.4-1.2s-1-.8-1.4-1.2c-1-.8-1.9-1.6-2.9-2.4s-1.9-1.6-2.8-2.5c-.9-.8-1.9-1.7-2.8-2.5-.4-.4-.8-.7-1.2-1.1c0,0-.2-.1-.2-.2-.5-.4-.9-.9-1.4-1.3-.4-.4-.8-.8-1.2-1.1-.5-.4-.9-.8-1.3-1.3c0,0-.2-.2-.3-.3-.9-.9-1.8-1.7-2.7-2.6l34.9-39.6l250.6-284L130.3,798.8L91,834.4c-.4-.6-.8-1.1-1.3-1.7c0,0,0-.1-.1-.2-.5-.7-1-1.3-1.5-2-1.1-1.5-2.1-2.9-3.1-4.4-.2-.2-.3-.5-.5-.7s-.3-.5-.5-.7c0,0,0,0-.1-.1c0,0,0,0-.1-.1-.5-.7-.9-1.4-1.4-2.1-.1-.2-.3-.4-.4-.6-.5-.7-.9-1.4-1.4-2.1-.1-.2-.2-.4-.4-.5-.3-.5-.7-1-1-1.6-.1-.2-.3-.4-.4-.7-.3-.5-.6-.9-.9-1.4-.5-.7-.9-1.4-1.4-2.2-.3-.5-.6-.9-.9-1.4s-.7-1.1-1-1.7c-.6-1-1.2-2-1.8-3-.2-.4-.5-.8-.7-1.1c0,0,0-.2-.1-.2c0,0,0-.2-.1-.2c0,0,0,0,0-.1c0,0,0,0,0,0s0,0,0-.1-.1-.2-.2-.3c-.1-.2-.3-.5-.4-.7c0,0,0,0,0,0-.6-1-1.2-2-1.7-3-.3-.4-.5-.9-.8-1.3-.1-.2-.3-.5-.4-.7-.3-.5-.6-1-.8-1.5-.4-.7-.8-1.5-1.2-2.2-.4-.8-.9-1.6-1.3-2.4c0-.1-.1-.2-.2-.3c0,0,0-.1-.1-.2c0,0,0,0,0,0-.2-.4-.5-.9-.7-1.3-.4-.7-.8-1.5-1.1-2.2-.5-.9-.9-1.8-1.4-2.8s-1-2-1.5-3-1-2-1.4-3c-.2-.5-.5-1-.7-1.5s-.5-1-.7-1.5c-.4-1-.9-1.9-1.3-2.9c0,0,0-.1,0-.2-.4-.8-.7-1.6-1.1-2.4c0-.2-.2-.4-.3-.6-.4-.8-.7-1.6-1.1-2.4-.3-.8-.6-1.5-.9-2.3s-.6-1.5-.9-2.3c-.1-.3-.3-.6-.4-.9-.2-.4-.3-.9-.5-1.3v0c-.1-.4-.3-.8-.4-1.1-.1-.4-.3-.7-.4-1.1-.4-.9-.7-1.8-1.1-2.8s-.7-2-1.1-3c-.1-.3-.2-.7-.4-1-.2-.6-.5-1.2-.7-1.9c0-.1,0-.3-.1-.4-.2-.7-.5-1.4-.7-2c0-.2-.1-.3-.2-.5c0,0,0,0,0-.1-.2-.5-.3-.9-.5-1.4-.1-.4-.3-.8-.4-1.2-.3-.9-.6-1.8-.9-2.8-.3-.9-.6-1.9-.9-2.8l45.9-31l244-164.6v0c1.7-1.1,3.5-2.3,5.4-3.6v0c0,0,0,0,0,0c8.1-6,17.5-15.6,23.3-30c.7-1.5,2.9-7.1,3.3-14.7l-93.2,53.6-191,109.7-49.9,28.7c0-.5-.1-.9-.2-1.4c0-.5-.1-1-.2-1.5-.4-2.6-.7-5-.9-7.4c0-.5-.1-.9-.2-1.4c0-.5-.1-.9-.2-1.4c0-.3,0-.6,0-.8s0-.4,0-.5c0,0,0-.2,0-.3s0-.2,0-.3c0-.4,0-.7-.1-1.1c0-.1,0-.2,0-.4v0c0,0,0-.2,0-.3c0,0,0-.2,0-.3c0-.3,0-.5,0-.7c0-.7-.1-1.3-.2-1.9c0-.4,0-.8-.1-1.3c0-.8-.1-1.7-.2-2.5c0-1.2-.2-2.4-.2-3.5c0-1.5-.2-2.9-.2-4.3c0-.3,0-.7,0-1c0-.1,0-.3,0-.4c0-.2,0-.4,0-.6c0,0,0,0,0-.1c0-.5,0-.9,0-1.3c0-.1,0-.2,0-.4v0c0-.2,0-.3,0-.4c0-.2,0-.4,0-.6c0-.3,0-.5,0-.8c0-.2,0-.4,0-.6c0-.1,0-.2,0-.3c0-.2,0-.3,0-.5s0-.3,0-.5s0-.3,0-.5v-.2c0-.2,0-.4,0-.5c0-.2,0-.4,0-.6c0-1.8,0-3.3,0-4.4-.2-21.2.9-41.6,3.1-61.2l56.7-22.5l156.6-62.2l101.1-40.2c-3.5-2.3-6.3-3.5-7.4-3.9-3.7-1.6-22.5-9.2-45.3-3.2h-.3c-1.7.5-3.5,1.1-5.2,1.7v0c0,0-187.6,59.1-187.6,59.1L40.2,529.7c8.3-36.5,20.3-69.3,33.7-98.3l64.4-10.2l188.1-29.7c5.8-.7,14.8-1.3,25.7-.3c0,0,.1,0,.2,0c2.2.2,4.4.5,6.7.8c0,0,0,0,0,0c9.4,1.5,19.9,4.3,30.5,9.4c4.4,2.1,11.7,5.7,19.7,11.9c4.4,3.5,9.1,7.8,13.6,13.1c3.6,4.2,11.5,13.7,16.7,27.5c1.9,5,3.4,10.5,4.2,16.5.5,3.4.7,7,.7,10.8-.1,17.7-6.4,31.8-12.4,41.4c4.2-5,7.8-9.6,10.8-13.7c12.3-16.6,16.8-26.4,19.5-35.7c2.1-7.3,2.8-13.2,2.9-17.2.1-3,0-4.9-.2-5.9-.4-3.5-1.1-6.7-2-9.7-2.3-7.5-5.9-12.9-8-16.2-1.9-2.9-4.1-5.6-6.5-8.1-3.9-4.1-8.4-7.8-13.2-11.1-3.8-2.6-7.8-5.1-11.8-7.2c9.6.6,19.5,1.1,29.8,1.5v0c11.2.5,22.7.8,34.7,1c10.2.2,20.8.3,31.7.3s8.2,0,12.5,0c5,0,10,0,15.2-.2v0c27.9-.4,58.9-1.6,93-3.8c5.6-.4,10.8,1.1,14.5,4.6c4.6,4.4,6.2,11.2,5,18.5c6-.6,11.8-.9,17.4-1c7.6-.1,17.7.3,25.9,7c9.6,7.9,12.2,20.9,12.9,29.2.3,3.5.2,6.2.2,7.3-.1,7.8-1.8,14.1-3.2,18.1-1.6-2.9-6.5-10.5-16.3-14.9-7.5-3.4-14.6-3.4-19.8-2.7c0,0,0,0,0,0-3.8.5-6.5,1.5-7.5,1.9-68.3,17.6-152.6,53.9-227.5,128.7-20.8,20.8-128.4,132.1-143.3,309.1c19.3,3.5,34.9,4.2,43.9,4.2h6c48,0,195.3-10.5,314.3-129.6c30.9-30.9,131.5-145,129.5-317.7c0-.3,0-1,0-1.1c0-2.7,0-6-.2-9.9-.6-13.1-2.5-32.8-8.4-55.7-.9-3.4-1.8-6.9-2.9-10.4-1.3-4.3-2.7-8.7-4.3-13.2c6.6-19.2,21.1-34.8,39.6-42.8c7.6,16.8,13.2,33,17.3,48.1c1.7,6.3,3.2,12.4,4.5,18.3c5.7,26.5,6.9,47.8,7.1,59.5c0,2.6,0,4.8,0,6.3v0c2.4,204.1-122.4,333.2-145,355.8l-2-1.8Z" fill="#0030cc"/><path d="M837.8,265.4c0,0,0,.1,0,.2-17.7.7-34.4,5.1-49.5,12.5-16.1,7.8-30.3,19-41.6,32.7-16.7,20.1-27.2,45.5-28.7,73.3h-.4c-1.7-31.9-15.3-60.7-36.5-81.8-21.5-21.5-50.8-35.2-83.3-36.6c0,0,0-.2,0-.2c28.4-1.1,54.3-11.8,74.8-28.8c3-2.5,5.8-5.1,8.6-7.8c9.8-9.8,18-21.2,24.1-33.8c7.5-15.5,12-32.7,12.5-51h.1c.9,33.1,14.8,63,36.6,84.8c21.5,21.5,50.8,35.2,83.3,36.6v-.1Z" fill="#e39e01"/></g></g></g></g></g></g></svg>
